<svg xmlns="http://www.w3.org/2000/svg" xmlns:xlink="http://www.w3.org/1999/xlink" width="830" height="710" viewBox="0 0 830 710">
  <defs>
    <clipPath id="clip-Artboard_1">
      <rect width="830" height="710"/>
    </clipPath>
  </defs>
  <g id="Artboard_1" data-name="Artboard – 1" clip-path="url(#clip-Artboard_1)">
    <circle id="Ellipse_1" data-name="Ellipse 1" cx="96" cy="96" r="96" transform="translate(319 227)" fill="#08197f"/>
    <path id="Path_6" data-name="Path 6" d="M82.426,10.928H77.462V1H67.533v9.928H27.821V1H17.892v9.928H12.928A9.957,9.957,0,0,0,3,20.856v69.5a9.957,9.957,0,0,0,9.928,9.928h69.5a9.957,9.957,0,0,0,9.928-9.928v-69.5A9.957,9.957,0,0,0,82.426,10.928Zm0,79.426h-69.5V40.713h69.5Zm-69.5-59.569V20.856h69.5v9.928Zm27.6,51.925L69.966,53.272,64.7,48.01,40.529,72.185,30.054,61.711l-5.262,5.262Z" transform="translate(367.101 272.235)" fill="#fff"/>
    <g id="Group_33" data-name="Group 33" transform="translate(303 446.814)">
      <text id="IDENTITY_CHECK" data-name="IDENTITY CHECK" transform="translate(112 29.186)" font-size="28" font-family="SegoeUI, Segoe UI"><tspan x="-103.817" y="0">IDENTITY CHECK</tspan></text>
    </g>
  </g>
</svg>
