<svg xmlns="http://www.w3.org/2000/svg" xmlns:xlink="http://www.w3.org/1999/xlink" width="830" height="710" viewBox="0 0 830 710">
  <defs>
    <clipPath id="clip-Artboard_3">
      <rect width="830" height="710"/>
    </clipPath>
  </defs>
  <g id="Artboard_3" data-name="Artboard – 3" clip-path="url(#clip-Artboard_3)">
    <circle id="Ellipse_3" data-name="Ellipse 3" cx="96" cy="96" r="96" transform="translate(319 227)" fill="#08197f"/>
    <path id="Path_9" data-name="Path 9" d="M56.353,90.037a2.476,2.476,0,0,1-3.5-3.5l16.72-16.72-6.954-6.954L45.9,79.581a2.476,2.476,0,0,1-3.5-3.5l16.72-16.72-6.954-6.954-16.72,16.72a2.484,2.484,0,0,1-3.5,0,2.532,2.532,0,0,1,0-3.5L48.659,48.9l-7-6.954-16.72,16.72a2.484,2.484,0,0,1-3.5,0,2.532,2.532,0,0,1,0-3.5l21.6-21.6,9.223,9.174a12.648,12.648,0,0,0,17.459,0,12.324,12.324,0,0,0,0-17.459l-9.174-9.174,1.381-1.381a9.883,9.883,0,0,1,13.958,0L96.8,35.637a9.883,9.883,0,0,1,0,13.958Zm47.4-33.439a19.766,19.766,0,0,0,0-27.915L82.839,7.771a19.766,19.766,0,0,0-27.915,0L53.542,9.151,52.161,7.771a19.766,19.766,0,0,0-27.915,0L6.786,25.23a19.691,19.691,0,0,0-1.973,25.6l7.151-7.151A9.864,9.864,0,0,1,13.79,32.184L31.249,14.725a9.883,9.883,0,0,1,13.958,0L62.765,32.283a2.476,2.476,0,0,1-3.5,3.5L43.037,19.607,14.431,48.164a12.324,12.324,0,0,0,0,17.459,12.131,12.131,0,0,0,7,3.452A12.14,12.14,0,0,0,31.89,79.532,12.14,12.14,0,0,0,42.346,89.988a11.988,11.988,0,0,0,3.452,7,12.384,12.384,0,0,0,17.46,0Z" transform="translate(359.804 271.58)" fill="#fff"/>
    <g id="Group_35" data-name="Group 35" transform="translate(260.257 446.814)">
      <text id="IN-PERSON_INTERVIEW" data-name="IN-PERSON INTERVIEW" transform="translate(154.743 29.186)" font-size="28" font-family="SegoeUI, Segoe UI"><tspan x="-144.963" y="0">IN-PERSON INTERVIEW</tspan></text>
    </g>
  </g>
</svg>
